<?xml version="1.0" encoding="UTF-8"?>
<!DOCTYPE svg PUBLIC "-//W3C//DTD SVG 1.1//EN" "http://www.w3.org/Graphics/SVG/1.1/DTD/svg11.dtd">
<svg version="1.1" xmlns="http://www.w3.org/2000/svg" xmlns:xlink="http://www.w3.org/1999/xlink" x="0" y="0" width="527.317" height="567.918" viewBox="0, 0, 527.317, 567.918">
  <defs>
    <clipPath id="Clip_1">
      <path d="M147.828,327.556 L152.828,435.056 L352.828,435.056 L357.828,366.306 L417.828,406.306 L440.328,387.556 L375.328,316.306 L209.078,306.306 z"/>
    </clipPath>
    <clipPath id="Clip_2">
      <path d="M123.393,20.531 C142.789,23.632 159.84,44.389 170.328,60.056 C170.328,60.056 179.078,38.806 200.328,47.556 C221.578,56.306 236.578,90.056 236.578,90.056 C236.578,90.056 251.578,72.556 267.828,81.306 C284.078,90.056 290.328,116.306 290.328,116.306 C290.328,116.306 319.078,106.306 326.578,118.806 C334.078,131.307 330.328,150.057 330.328,150.057 C330.328,150.057 409.078,210.057 389.078,268.806 C369.078,327.556 101.578,360.056 32.828,273.806 C-60.746,156.413 111.578,61.306 111.578,61.306 C111.578,61.306 92.828,28.806 116.578,21.306 C120.304,20.396 118.053,20.795 123.393,20.531 z"/>
    </clipPath>
    <clipPath id="Clip_3">
      <path d="M403.923,20.531 C409.263,20.795 407.012,20.396 410.738,21.306 C434.488,28.806 415.738,61.306 415.738,61.306 C415.738,61.306 588.062,156.413 494.488,273.806 C425.738,360.056 158.238,327.556 138.238,268.806 C118.238,210.057 196.988,150.057 196.988,150.057 C196.988,150.057 193.238,131.307 200.738,118.806 C208.238,106.306 236.988,116.306 236.988,116.306 C236.988,116.306 243.238,90.056 259.488,81.306 C275.738,72.556 290.738,90.056 290.738,90.056 C290.738,90.056 305.738,56.306 326.988,47.556 C348.238,38.806 356.988,60.056 356.988,60.056 C368.659,43.696 382.906,24.221 403.923,20.531 z"/>
    </clipPath>
  </defs>
  <g id="Layer_1">
    <path d="M438.648,386.97 C438.648,386.97 482.408,370.251 485.406,384.177 C488.404,398.103 454.302,412.147 454.302,412.147 C454.302,412.147 468.902,415.672 463.453,424.148 C457.984,432.595 440.728,440.027 418.687,407.401" fill="#A3CD79" id="path844"/>
    <path d="M438.648,386.97 C438.648,386.97 482.408,370.251 485.406,384.177 C488.404,398.103 454.302,412.147 454.302,412.147 C454.302,412.147 468.902,415.672 463.453,424.148 C457.984,432.595 440.728,440.027 418.687,407.401" fill-opacity="0" stroke="#3C2C1E" stroke-width="10" stroke-linecap="round" stroke-linejoin="round" id="path846"/>
    <path d="M152.828,435.057 L167.828,527.557 L206.578,526.307 L251.578,473.807 L309.078,527.557 L344.078,526.307 L352.828,435.057" fill="#DD4347" id="path848"/>
    <path d="M152.828,435.057 L167.828,527.557 L206.578,526.307 L251.578,473.807 L309.078,527.557 L344.078,526.307 L352.828,435.057" fill-opacity="0" stroke="#3C2C1E" stroke-width="10" stroke-linecap="round" stroke-linejoin="round" id="path850"/>
    <path d="M147.828,327.557 L152.828,435.057 L352.828,435.057 L357.828,366.307 L417.828,406.307 L440.328,387.557 L375.328,316.307 L209.078,306.307" fill="#E88040" id="path852"/>
    <path d="M147.828,327.557 L152.828,435.057 L352.828,435.057 L357.828,366.307 L417.828,406.307 L440.328,387.557 L375.328,316.307 L209.078,306.307" fill-opacity="0" stroke="#3C2C1E" stroke-width="10" stroke-linecap="round" stroke-linejoin="round" id="path854"/>
    <g clip-path="url(#Clip_1)" id="g858">
      <path d="M147.828,382.557 L364.078,382.557 L364.078,413.807 L147.828,413.807 z" fill="#EBB646" id="path856"/>
    </g>
    <path d="M147.828,327.557 L152.828,435.057 L352.828,435.057 L357.828,366.307 L417.828,406.307 L440.328,387.557 L375.328,316.307 L209.078,306.307" fill-opacity="0" stroke="#3C2C1E" stroke-width="10" stroke-linecap="round" stroke-linejoin="round" id="path860"/>
    <path d="M167.828,527.556 C167.828,527.556 133.746,531.247 140.328,548.806 C147.828,568.806 205.328,572.556 206.578,526.306" fill="#3C2C1E" id="path862"/>
    <path d="M167.828,527.556 C167.828,527.556 133.746,531.247 140.328,548.806 C147.828,568.806 205.328,572.556 206.578,526.306" fill-opacity="0" stroke="#3C2C1E" stroke-width="10" stroke-linecap="round" stroke-linejoin="round" id="path864"/>
    <path d="M345.738,527.556 C345.738,527.556 379.82,531.247 373.238,548.806 C365.738,568.806 308.238,572.556 306.988,526.306" fill="#3C2C1E" id="path866"/>
    <path d="M345.738,527.556 C345.738,527.556 379.82,531.247 373.238,548.806 C365.738,568.806 308.238,572.556 306.988,526.306" fill-opacity="0" stroke="#3C2C1E" stroke-width="10" stroke-linecap="round" stroke-linejoin="round" id="path868"/>
    <path d="M131.578,37.556 C131.578,37.556 152.828,7.556 185.328,6.306 C211.822,5.29 232.828,26.306 232.828,26.306 C232.828,26.306 247.76,6.364 279.078,5.056 C309.078,3.806 330.328,23.806 330.328,23.806 C330.328,23.806 392.828,-6.194 407.828,31.306 C423.033,69.333 370.328,117.556 316.578,123.806 C262.828,130.057 89.078,96.306 131.578,37.556" fill="#A3CD79" id="path870"/>
    <g id="g878">
      <path d="M131.578,37.556 C131.578,37.556 152.828,7.556 185.328,6.306 C211.822,5.29 232.828,26.306 232.828,26.306 C232.828,26.306 247.76,6.364 279.078,5.056 C309.078,3.806 330.328,23.806 330.328,23.806 C330.328,23.806 392.828,-6.194 407.828,31.306 C423.033,69.333 370.328,117.556 316.578,123.806 C262.828,130.057 89.078,96.306 131.578,37.556 z" fill-opacity="0" stroke="#3C2C1E" stroke-width="10" stroke-linecap="round" stroke-linejoin="round" id="path872"/>
      <path d="M111.578,61.306 C111.578,61.306 92.828,28.806 116.578,21.306 C140.328,13.806 170.328,60.056 170.328,60.056 C170.328,60.056 179.078,38.806 200.328,47.556 C221.578,56.306 236.578,90.056 236.578,90.056 C236.578,90.056 251.578,72.556 267.828,81.306 C284.078,90.056 290.328,116.306 290.328,116.306 C290.328,116.306 319.078,106.306 326.578,118.806 C334.078,131.306 330.328,150.056 330.328,150.056 C330.328,150.056 409.078,210.056 389.078,268.806 C369.078,327.556 101.578,360.056 32.828,273.806 C-60.746,156.413 111.578,61.306 111.578,61.306" fill="#A3CD79" id="path874"/>
      <path d="M111.578,61.306 C111.578,61.306 92.828,28.806 116.578,21.306 C140.328,13.806 170.328,60.056 170.328,60.056 C170.328,60.056 179.078,38.806 200.328,47.556 C221.578,56.306 236.578,90.056 236.578,90.056 C236.578,90.056 251.578,72.556 267.828,81.306 C284.078,90.056 290.328,116.306 290.328,116.306 C290.328,116.306 319.078,106.306 326.578,118.806 C334.078,131.306 330.328,150.056 330.328,150.056 C330.328,150.056 409.078,210.056 389.078,268.806 C369.078,327.556 101.578,360.056 32.828,273.806 C-60.746,156.413 111.578,61.306 111.578,61.306 z" fill-opacity="0" stroke="#3C2C1E" stroke-width="10" stroke-linecap="round" stroke-linejoin="round" id="path876"/>
    </g>
    <g clip-path="url(#Clip_2)" id="g882">
      <path d="M385.406,252.557 C385.406,252.557 341.656,293.807 251.656,298.807 C251.656,298.807 177.906,272.557 154.156,177.557 C154.156,177.557 147.906,273.807 214.156,300.057 C214.156,300.057 152.906,302.557 124.156,291.307 C95.406,280.057 57.906,198.807 62.906,166.307 C62.906,166.307 55.406,246.307 79.156,280.057 C79.156,280.057 26.656,273.807 -13.344,237.557 C-13.344,237.557 -20.844,320.057 104.156,338.807 C229.156,357.557 369.156,333.807 385.406,252.557" fill="#FFFFFE" id="path880"/>
    </g>
    <g id="g890">
      <path d="M111.578,61.306 C111.578,61.306 92.828,28.806 116.578,21.306 C140.328,13.806 170.328,60.056 170.328,60.056 C170.328,60.056 179.078,38.806 200.328,47.556 C221.578,56.306 236.578,90.056 236.578,90.056 C236.578,90.056 251.578,72.556 267.828,81.306 C284.078,90.056 290.328,116.306 290.328,116.306 C290.328,116.306 319.078,106.306 326.578,118.806 C334.078,131.306 330.328,150.056 330.328,150.056 C330.328,150.056 409.078,210.056 389.078,268.806 C369.078,327.556 101.578,360.056 32.828,273.806 C-60.746,156.413 111.578,61.306 111.578,61.306 z" fill-opacity="0" stroke="#3C2C1E" stroke-width="10" stroke-linecap="round" stroke-linejoin="round" id="path884"/>
      <path d="M415.738,61.306 C415.738,61.306 434.488,28.806 410.738,21.306 C386.988,13.806 356.988,60.056 356.988,60.056 C356.988,60.056 348.238,38.806 326.988,47.556 C305.738,56.306 290.738,90.056 290.738,90.056 C290.738,90.056 275.738,72.556 259.488,81.306 C243.238,90.056 236.988,116.306 236.988,116.306 C236.988,116.306 208.238,106.306 200.738,118.806 C193.238,131.306 196.988,150.056 196.988,150.056 C196.988,150.056 118.238,210.056 138.238,268.806 C158.238,327.556 425.738,360.056 494.488,273.806 C588.062,156.413 415.738,61.306 415.738,61.306" fill="#A3CD79" id="path886"/>
      <path d="M415.738,61.306 C415.738,61.306 434.488,28.806 410.738,21.306 C386.988,13.806 356.988,60.056 356.988,60.056 C356.988,60.056 348.238,38.806 326.988,47.556 C305.738,56.306 290.738,90.056 290.738,90.056 C290.738,90.056 275.738,72.556 259.488,81.306 C243.238,90.056 236.988,116.306 236.988,116.306 C236.988,116.306 208.238,106.306 200.738,118.806 C193.238,131.306 196.988,150.056 196.988,150.056 C196.988,150.056 118.238,210.056 138.238,268.806 C158.238,327.556 425.738,360.056 494.488,273.806 C588.062,156.413 415.738,61.306 415.738,61.306 z" fill-opacity="0" stroke="#3C2C1E" stroke-width="10" stroke-linecap="round" stroke-linejoin="round" id="path888"/>
    </g>
    <g clip-path="url(#Clip_3)" id="g894">
      <path d="M127.828,252.557 C127.828,252.557 171.578,293.807 261.578,298.807 C261.578,298.807 335.328,272.557 359.078,177.557 C359.078,177.557 365.328,273.807 299.078,300.057 C299.078,300.057 360.328,302.557 389.078,291.307 C417.828,280.057 455.328,198.807 450.328,166.307 C450.328,166.307 457.828,246.307 434.078,280.057 C434.078,280.057 486.578,273.807 526.578,237.557 C526.578,237.557 534.078,320.057 409.078,338.807 C284.078,357.557 144.078,333.807 127.828,252.557" fill="#FFFFFE" id="path892"/>
    </g>
    <path d="M415.738,61.306 C415.738,61.306 434.488,28.806 410.738,21.306 C386.988,13.806 356.988,60.056 356.988,60.056 C356.988,60.056 348.238,38.806 326.988,47.556 C305.738,56.306 290.738,90.056 290.738,90.056 C290.738,90.056 275.738,72.556 259.488,81.306 C243.238,90.056 236.988,116.306 236.988,116.306 C236.988,116.306 208.238,106.306 200.738,118.806 C193.238,131.306 196.988,150.056 196.988,150.056 C196.988,150.056 118.238,210.056 138.238,268.806 C158.238,327.556 425.738,360.056 494.488,273.806 C588.062,156.413 415.738,61.306 415.738,61.306 z" fill-opacity="0" stroke="#3C2C1E" stroke-width="10" stroke-linecap="round" stroke-linejoin="round" id="path896"/>
    <path d="M219.058,210.798 C219.058,243.24 192.769,269.529 160.318,269.529 C127.867,269.529 101.578,243.24 101.578,210.798 C101.578,178.347 127.867,152.048 160.318,152.048 C192.769,152.048 219.058,178.347 219.058,210.798" fill="#E989A0" id="path898"/>
    <path d="M150.406,175.428 C152.379,179.822 148.336,185.896 141.402,189.001 C134.449,192.107 127.222,191.072 125.26,186.697 C123.297,182.303 127.34,176.229 134.283,173.122 C141.226,170.008 148.453,171.042 150.406,175.428" fill="#FFFFFE" id="path900"/>
    <path d="M427.916,210.798 C427.916,243.24 401.627,269.529 369.176,269.529 C336.724,269.529 310.435,243.24 310.435,210.798 C310.435,178.347 336.724,152.048 369.176,152.048 C401.627,152.048 427.916,178.347 427.916,210.798" fill="#E989A0" id="path902"/>
    <path d="M359.263,175.428 C361.236,179.822 357.193,185.896 350.26,189.001 C343.306,192.107 336.08,191.072 334.117,186.697 C332.154,182.303 336.197,176.229 343.14,173.122 C350.084,170.008 357.31,171.042 359.263,175.428" fill="#FFFFFE" id="path904"/>
    <path d="M227.76,163.65 C227.76,179.675 219.488,192.654 209.273,192.654 C199.058,192.654 190.777,179.675 190.777,163.65 C190.777,147.634 199.058,134.646 209.273,134.646 C219.488,134.646 227.76,147.634 227.76,163.65" fill="#3C2C1E" id="path906"/>
    <path d="M330.748,163.65 C330.748,179.675 322.467,192.654 312.252,192.654 C302.037,192.654 293.765,179.675 293.765,163.65 C293.765,147.634 302.037,134.646 312.252,134.646 C322.467,134.646 330.748,147.634 330.748,163.65" fill="#3C2C1E" id="path908"/>
    <path d="M192.955,219.489 L322.76,218.044 C322.76,218.044 314.058,287.663 254.605,285.486 C195.133,283.318 192.955,219.489 192.955,219.489" fill="#E05659" id="path910"/>
    <path d="M192.955,219.489 L322.76,218.044 C322.76,218.044 314.058,287.663 254.605,285.486 C195.133,283.318 192.955,219.489 192.955,219.489 z" fill-opacity="0" stroke="#3C2C1E" stroke-width="10" stroke-linecap="round" stroke-linejoin="round" id="path912"/>
    <path d="M101.578,237.556 C101.578,237.556 126.578,178.806 107.828,180.056 C89.078,181.306 86.578,195.056 86.578,195.056 C86.578,195.056 70.328,158.806 46.578,167.556 C22.828,176.306 34.078,246.306 72.828,256.306" fill="#A3CD79" id="path914"/>
    <path d="M101.578,237.556 C101.578,237.556 126.578,178.806 107.828,180.056 C89.078,181.306 86.578,195.056 86.578,195.056 C86.578,195.056 70.328,158.806 46.578,167.556 C22.828,176.306 34.078,246.306 72.828,256.306" fill-opacity="0" stroke="#3C2C1E" stroke-width="10" stroke-linecap="round" stroke-linejoin="round" id="path916"/>
    <path d="M207.828,332.557 L101.578,237.557 L72.828,256.307 L150.328,356.307" fill="#E88040" id="path918"/>
    <path d="M207.828,332.557 L101.578,237.557 L72.828,256.307 L150.328,356.307" fill-opacity="0" stroke="#3C2C1E" stroke-width="10" stroke-linecap="round" stroke-linejoin="round" id="path920"/>
  </g>
</svg>